<svg xmlns="http://www.w3.org/2000/svg" width="512" height="512" viewBox="0 0 512 512" version="1.1"><path d="M 145.115 22.501 C 142.704 23.253, 139.204 25.348, 137.338 27.157 C 131.140 33.164, 131 34.578, 131 91 C 131 147.402, 131.142 148.838, 137.326 154.831 C 142.378 159.728, 148.030 161, 164.736 161 L 179.154 161 182.077 163.923 C 185.939 167.785, 185.918 172.239, 182 180 C 180.350 183.269, 179 186.120, 179 186.336 C 179 186.552, 190.283 180.939, 204.073 173.864 L 229.147 161 295.823 160.994 C 339.265 160.991, 363.816 160.623, 366.277 159.940 C 370.690 158.714, 376.384 154.014, 378.801 149.602 C 380.326 146.818, 380.533 141.161, 380.822 94.500 C 381.183 36.325, 381.009 34.229, 375.294 27.904 C 368.760 20.671, 374.383 20.992, 255.568 21.067 C 168.807 21.122, 148.702 21.383, 145.115 22.501 M 175.775 42.559 C 170.084 45.647, 169.216 52.972, 173.918 58.234 L 176.836 61.500 199 61.500 L 221.164 61.500 224.082 58.234 C 228.656 53.115, 227.566 45.378, 221.855 42.425 C 217.810 40.334, 179.672 40.444, 175.775 42.559 M 173.923 83.923 C 171.631 86.216, 171 87.742, 171 91 C 171 94.258, 171.631 95.784, 173.923 98.077 L 176.846 101 248.277 101 L 319.708 101 322.314 98.585 C 327.069 94.178, 327.069 87.822, 322.314 83.415 L 319.708 81 248.277 81 L 176.846 81 173.923 83.923 M 173.923 123.923 C 171.631 126.216, 171 127.742, 171 131 C 171 134.258, 171.631 135.784, 173.923 138.077 L 176.846 141 248.277 141 L 319.708 141 322.314 138.585 C 327.069 134.178, 327.069 127.822, 322.314 123.415 L 319.708 121 248.277 121 L 176.846 121 173.923 123.923" stroke="none" fill="#dcebfd" fill-rule="evenodd"/><path d="M 189.250 61.746 C 194.613 61.925, 203.387 61.925, 208.750 61.746 C 214.113 61.566, 209.725 61.419, 199 61.419 C 188.275 61.419, 183.887 61.566, 189.250 61.746 M 222 308.776 C 226.675 313.005, 232.863 318.768, 235.750 321.581 L 241 326.696 241 408.848 L 241 491 251 491 L 261 491 261 410.082 C 261 365.577, 261.289 328.410, 261.643 327.489 C 261.996 326.568, 269.717 320.231, 278.801 313.407 L 295.317 301 254.409 301.043 L 213.500 301.086 222 308.776 M 21.606 393.750 C 23.556 402.075, 29.059 408.022, 36.564 409.912 C 39.321 410.606, 55.385 411, 80.943 411 L 121 411 121 401 L 121 391 70.981 391 L 20.962 391 21.606 393.750 M 391 401 L 391 411 431.057 411 C 456.963 411, 472.663 410.610, 475.499 409.896 C 482.012 408.256, 487.633 402.974, 489.479 396.758 C 490.316 393.942, 491 391.494, 491 391.318 C 491 391.143, 468.500 391, 441 391 L 391 391 391 401" stroke="none" fill="#8795de" fill-rule="evenodd"/><path d="M 35.764 241.996 C 30.745 243.507, 26.448 246.858, 23.962 251.201 L 21.500 255.500 21.219 313.250 L 20.938 371 77.913 371 L 134.888 371 137.694 373.413 L 140.500 375.825 141 428.341 C 141.486 479.418, 141.556 480.931, 143.562 483.616 C 147.258 488.564, 150.755 490.500, 156 490.500 C 161.246 490.500, 164.744 488.564, 168.438 483.615 C 170.469 480.894, 170.500 479.919, 170.500 418.176 L 170.500 355.500 168.197 351.483 C 165.630 347.005, 161.021 343.440, 155.905 341.973 C 154.039 341.438, 139.654 341, 123.938 341 C 93.205 341, 89.096 340.474, 80.500 335.439 C 75.810 332.692, 69.167 325.961, 66.249 321 C 61.728 313.313, 61 308.061, 60.994 283.068 C 60.991 268.891, 60.547 257.907, 59.879 255.503 C 58.431 250.286, 51.714 243.569, 46.497 242.121 C 41.934 240.854, 39.644 240.827, 35.764 241.996" stroke="none" fill="#a3cc52" fill-rule="evenodd"/><path d="M 35.764 241.996 C 30.745 243.507, 26.448 246.858, 23.962 251.201 L 21.500 255.500 21.219 313.250 L 20.938 371 77.913 371 L 134.888 371 137.694 373.413 L 140.500 375.825 141 428.341 C 141.486 479.418, 141.556 480.931, 143.562 483.616 C 147.258 488.564, 150.755 490.500, 156 490.500 C 161.246 490.500, 164.744 488.564, 168.438 483.615 C 170.469 480.894, 170.500 479.919, 170.500 418.176 L 170.500 355.500 168.197 351.483 C 165.630 347.005, 161.021 343.440, 155.905 341.973 C 154.039 341.438, 139.654 341, 123.938 341 C 93.205 341, 89.096 340.474, 80.500 335.439 C 75.810 332.692, 69.167 325.961, 66.249 321 C 61.728 313.313, 61 308.061, 60.994 283.068 C 60.991 268.891, 60.547 257.907, 59.879 255.503 C 58.431 250.286, 51.714 243.569, 46.497 242.121 C 41.934 240.854, 39.644 240.827, 35.764 241.996" stroke="none" fill="#a3cc52" fill-rule="evenodd"/><path d="M 139.500 2.394 C 128.289 5.973, 119.522 13.573, 114.582 23.997 L 111.500 30.500 111.500 91 L 111.500 151.500 114.582 158.003 C 118.546 166.368, 125.673 173.484, 133.980 177.371 C 139.224 179.825, 142.127 180.486, 149.143 180.821 L 157.820 181.236 150.747 195.601 C 143.880 209.546, 143.708 210.081, 144.844 213.873 C 145.487 216.021, 147.120 218.504, 148.472 219.390 C 153.743 222.844, 156.129 221.943, 195.848 201.500 L 233.735 182 296.118 181.967 C 330.428 181.949, 361.534 181.543, 365.242 181.065 C 379.487 179.228, 391.379 170.754, 397.326 158.201 L 400.500 151.500 400.500 91 L 400.500 30.500 397.418 23.997 C 393.470 15.667, 386.333 8.530, 378.003 4.582 L 371.500 1.500 257.500 1.308 C 167.347 1.157, 142.663 1.384, 139.500 2.394 M 140.264 23.558 C 137.868 24.994, 134.935 27.961, 133.514 30.386 L 131 34.676 131 91 L 131 147.324 133.527 151.636 C 135.008 154.163, 137.837 156.992, 140.364 158.473 C 144.438 160.861, 145.496 161.003, 159.588 161.056 C 177.469 161.124, 180.762 161.988, 183.353 167.294 L 185.207 171.088 181.150 179.544 C 178.918 184.195, 177.485 188, 177.966 188 C 178.446 188, 189.788 182.262, 203.169 175.250 L 227.500 162.500 297 162 L 366.500 161.500 371.223 158.723 C 374.139 157.010, 376.914 154.297, 378.473 151.636 L 381 147.324 381 91 L 381 34.676 378.473 30.364 C 376.992 27.837, 374.163 25.008, 371.636 23.527 L 367.324 21 255.912 21.009 L 144.500 21.019 140.264 23.558 M 175.077 44.589 C 171.084 47.949, 170.802 53.495, 174.411 57.694 L 176.823 60.500 197.060 60.810 C 211.149 61.025, 218.176 60.756, 220.189 59.922 C 226.616 57.260, 228.036 49.882, 223.077 44.923 L 220.154 42 199.154 42 L 178.153 42 175.077 44.589 M 178.295 82.094 C 174.169 83.304, 172 86.465, 172 91.268 C 172 96.321, 175.278 99.627, 181.124 100.472 C 183.531 100.819, 215.280 100.968, 251.677 100.802 C 317.130 100.503, 317.886 100.477, 320.677 98.398 C 326.251 94.247, 326.251 87.753, 320.677 83.602 C 317.879 81.518, 317.262 81.498, 249.677 81.327 C 209.481 81.224, 180.185 81.539, 178.295 82.094 M 178.295 122.094 C 174.169 123.304, 172 126.465, 172 131.268 C 172 136.321, 175.278 139.627, 181.124 140.472 C 183.531 140.819, 215.280 140.968, 251.677 140.802 C 317.130 140.503, 317.886 140.477, 320.677 138.398 C 326.251 134.247, 326.251 127.753, 320.677 123.602 C 317.879 121.518, 317.262 121.498, 249.677 121.327 C 209.481 121.224, 180.185 121.539, 178.295 122.094 M 33.500 152.350 C 20.387 156.692, 10.826 164.973, 5.113 176.935 C 1.610 184.269, 1.500 184.851, 1.500 196 C 1.500 206.499, 1.743 208.019, 4.295 213.468 C 5.832 216.751, 8.854 221.773, 11.010 224.630 L 14.931 229.823 11.344 233.662 C 9.371 235.773, 6.349 240.425, 4.628 244 L 1.500 250.500 1.500 326 L 1.500 401.500 4.620 408 C 11.074 421.447, 23.621 429.961, 38.230 430.807 C 44.987 431.198, 46.022 431.495, 45.474 432.882 C 35.585 457.922, 21 498.872, 21 501.595 C 21 506.817, 25.447 511, 31 511 C 37.963 511, 39.345 508.714, 50.504 478.750 C 55.983 464.038, 60.706 452, 61 452 C 61.294 452, 66.017 464.038, 71.496 478.750 C 82.655 508.714, 84.037 511, 91 511 C 96.553 511, 101 506.817, 101 501.595 C 101 498.862, 86.616 458.484, 76.476 432.750 C 75.831 431.115, 77.267 431, 98.393 431 L 121 431 121 456.962 C 121 481.001, 121.158 483.354, 123.136 488.712 C 126.092 496.726, 135.274 505.908, 143.288 508.864 C 151.037 511.724, 160.963 511.724, 168.712 508.864 C 176.761 505.894, 185.906 496.729, 188.892 488.639 C 191.039 482.821, 191.053 482.308, 190.777 416.639 L 190.500 350.500 187.418 343.997 C 183.470 335.667, 176.333 328.530, 168.003 324.582 L 161.500 321.500 129 320.968 C 93.862 320.393, 92.970 320.260, 87.223 314.716 C 81.789 309.474, 81 304.821, 81 278 C 81 251.456, 80.377 247.732, 74.459 238.939 L 70.949 233.724 73.225 232.182 C 77.915 229.004, 83.236 222.301, 86.809 215.071 C 90.420 207.766, 90.500 207.352, 90.500 196.052 C 90.500 184.843, 90.393 184.275, 86.887 176.935 C 82.113 166.939, 75.039 159.871, 65.065 155.131 C 58.153 151.846, 56.637 151.514, 47.500 151.281 C 41.209 151.120, 36.017 151.517, 33.500 152.350 M 453.500 152.350 C 440.387 156.692, 430.826 164.973, 425.113 176.935 C 421.607 184.275, 421.500 184.843, 421.500 196.052 C 421.500 207.352, 421.580 207.766, 425.191 215.071 C 428.764 222.301, 434.085 229.004, 438.775 232.182 L 441.051 233.724 437.541 238.939 C 431.623 247.732, 431 251.456, 431 278 C 431 304.821, 430.211 309.474, 424.777 314.716 C 419.030 320.260, 418.138 320.393, 383 320.968 L 350.500 321.500 343.997 324.582 C 335.667 328.530, 328.530 335.667, 324.582 343.997 L 321.500 350.500 321.223 416.639 C 320.947 482.308, 320.961 482.821, 323.108 488.639 C 326.094 496.729, 335.239 505.894, 343.288 508.864 C 351.058 511.732, 360.982 511.727, 368.664 508.853 C 376.718 505.839, 385.983 496.609, 388.878 488.712 C 390.838 483.368, 391 480.938, 391 456.962 L 391 431 413.607 431 C 434.733 431, 436.169 431.115, 435.524 432.750 C 425.384 458.484, 411 498.862, 411 501.595 C 411 506.817, 415.447 511, 421 511 C 427.963 511, 429.345 508.714, 440.504 478.750 C 445.983 464.038, 450.706 452, 451 452 C 451.294 452, 456.017 464.037, 461.496 478.750 C 472.655 508.714, 474.037 511, 481 511 C 486.553 511, 491 506.817, 491 501.595 C 491 498.872, 476.415 457.922, 466.526 432.882 C 465.978 431.495, 467.013 431.198, 473.770 430.807 C 488.504 429.954, 501.042 421.457, 507.418 408.003 L 510.500 401.500 510.500 326 L 510.500 250.500 507.372 244 C 505.651 240.425, 502.629 235.773, 500.656 233.662 L 497.069 229.823 500.990 224.630 C 503.146 221.773, 506.168 216.751, 507.705 213.468 C 510.257 208.019, 510.500 206.499, 510.500 196 C 510.500 184.851, 510.390 184.269, 506.887 176.935 C 502.113 166.939, 495.039 159.871, 485.065 155.131 C 478.153 151.846, 476.637 151.514, 467.500 151.281 C 461.209 151.120, 456.017 151.517, 453.500 152.350 M 34.158 173.571 C 24.871 178.264, 20.517 186.440, 21.168 197.961 C 21.659 206.659, 25.387 213.108, 32.448 217.474 C 36.910 220.232, 38.109 220.500, 46 220.500 C 53.891 220.500, 55.090 220.232, 59.552 217.474 C 62.586 215.598, 65.598 212.586, 67.474 209.552 C 70.232 205.090, 70.500 203.891, 70.500 196 C 70.500 188.109, 70.232 186.910, 67.474 182.448 C 62.895 175.042, 56.628 171.582, 47.078 171.186 C 40.467 170.911, 38.818 171.216, 34.158 173.571 M 454.158 173.571 C 444.871 178.264, 440.517 186.440, 441.168 197.961 C 441.659 206.659, 445.387 213.108, 452.448 217.474 C 456.910 220.232, 458.109 220.500, 466 220.500 C 473.891 220.500, 475.090 220.232, 479.552 217.474 C 482.586 215.598, 485.598 212.586, 487.474 209.552 C 490.232 205.090, 490.500 203.891, 490.500 196 C 490.500 188.109, 490.232 186.910, 487.474 182.448 C 482.895 175.042, 476.628 171.582, 467.078 171.186 C 460.467 170.911, 458.818 171.216, 454.158 173.571 M 31.168 243.091 C 28.688 244.350, 25.696 247.013, 24.168 249.321 L 21.500 253.352 21.227 312.176 L 20.954 371 75.227 371.006 C 109.850 371.009, 130.861 371.389, 133.259 372.055 C 140.708 374.124, 140.440 372.092, 141 430.689 L 141.500 482.969 145.267 486.734 C 148.901 490.368, 149.278 490.500, 156 490.500 C 162.722 490.500, 163.099 490.368, 166.733 486.734 L 170.500 482.968 170.772 419.345 C 171.042 356.075, 171.032 355.697, 168.901 351.295 C 167.603 348.614, 165.159 345.809, 162.705 344.184 L 158.653 341.500 126.076 340.897 C 99.068 340.396, 92.737 340.006, 89.033 338.614 C 73.658 332.836, 63.950 320.862, 61.927 305.179 C 61.453 301.506, 61.051 288.855, 61.033 277.066 C 61.003 257.305, 60.834 255.289, 58.879 251.250 C 55.779 244.846, 50.408 241.633, 42.111 241.221 C 36.835 240.959, 34.625 241.336, 31.168 243.091 M 140.005 242.744 C 133.732 244.957, 124.857 254.014, 122.676 260.428 C 118.708 272.096, 121.312 283.460, 129.926 292.074 C 138.018 300.166, 141.154 301, 163.499 301 L 181.641 301 201.320 318.529 L 221 336.058 221 420.606 L 221 505.154 223.923 508.077 L 226.846 511 251 511 L 275.154 511 278.077 508.077 L 281 505.154 281.044 421.327 L 281.087 337.500 305.534 319.250 L 329.981 301 348.312 301 C 370.867 301, 373.968 300.180, 382.074 292.074 C 390.630 283.519, 393.292 272.084, 389.394 260.643 C 387.029 253.701, 379.199 245.592, 372.410 243.052 C 366.994 241.026, 365.517 241.001, 255.712 241.079 C 156.864 241.149, 144 241.334, 140.005 242.744 M 461.168 243.091 C 458.690 244.349, 455.695 247.014, 454.168 249.319 L 451.500 253.348 450.877 280.924 C 450.377 303.003, 449.922 309.390, 448.594 312.967 C 442.907 328.284, 430.868 338.049, 415.179 340.073 C 411.506 340.547, 396.605 340.949, 382.066 340.967 C 351.836 341.005, 349.721 341.467, 344.362 349.200 L 341.500 353.329 341.500 418.148 L 341.500 482.967 345.267 486.733 C 348.901 490.368, 349.277 490.500, 356 490.500 C 362.722 490.500, 363.099 490.368, 366.733 486.734 L 370.500 482.969 371 430.689 C 371.560 372.092, 371.292 374.124, 378.741 372.055 C 381.139 371.389, 402.143 371.009, 436.750 371.006 L 491 371 491 313.316 C 491 256.577, 490.965 255.560, 488.879 251.250 C 485.779 244.846, 480.408 241.633, 472.111 241.221 C 466.835 240.959, 464.625 241.336, 461.168 243.091 M 143.687 263.805 C 141.605 265.978, 141 267.598, 141 271 C 141 274.402, 141.605 276.022, 143.687 278.195 L 146.374 281 256 281 L 365.626 281 368.313 278.195 C 370.395 276.022, 371 274.402, 371 271 C 371 267.598, 370.395 265.978, 368.313 263.805 L 365.626 261 256 261 L 146.374 261 143.687 263.805 M 212 301.331 C 212 301.513, 218.084 307.022, 225.520 313.573 C 236.019 322.823, 239.257 326.267, 240.014 328.992 C 240.609 331.133, 240.991 363.375, 240.994 411.750 L 241 491 250.972 491 L 260.943 491 261.222 410.080 L 261.500 329.160 263.990 326.510 C 265.359 325.053, 273.122 318.892, 281.240 312.821 C 289.358 306.749, 296 301.605, 296 301.390 C 296 301.176, 277.100 301, 254 301 C 230.900 301, 212 301.149, 212 301.331 M 21.283 395.072 C 22.054 400.818, 26.058 406.366, 31.250 408.879 C 35.505 410.939, 36.863 411, 78.316 411 L 121 411 121 401 L 121 391 70.868 391 L 20.737 391 21.283 395.072 M 391 401 L 391 411 433.684 411 C 475.137 411, 476.495 410.939, 480.750 408.879 C 485.942 406.366, 489.946 400.818, 490.717 395.072 L 491.263 391 441.132 391 L 391 391 391 401" stroke="none" fill="#000000" fill-rule="evenodd"/><path d="M 188.750 41.746 C 194.387 41.924, 203.613 41.924, 209.250 41.746 C 214.887 41.568, 210.275 41.422, 199 41.422 C 187.725 41.422, 183.113 41.568, 188.750 41.746 M 146.110 262.396 C 139.408 266.110, 139.628 276.687, 146.472 279.805 C 148.453 280.708, 175.267 281, 256.097 281 C 346.751 281, 363.520 280.782, 365.855 279.575 C 372.510 276.133, 372.510 265.867, 365.855 262.425 C 361.895 260.377, 149.802 260.349, 146.110 262.396 M 213 301.313 C 213 301.485, 214.463 302.948, 216.250 304.563 L 219.500 307.500 216.563 304.250 C 213.825 301.221, 213 300.540, 213 301.313 M 222 309.313 C 222 309.485, 223.463 310.948, 225.250 312.563 L 228.500 315.500 225.563 312.250 C 222.825 309.221, 222 308.540, 222 309.313 M 231 317.313 C 231 317.485, 232.463 318.948, 234.250 320.563 L 237.500 323.500 234.563 320.250 C 231.825 317.221, 231 316.540, 231 317.313" stroke="none" fill="#6c7fd8" fill-rule="evenodd"/><path d="M 139.500 2.394 C 128.289 5.973, 119.522 13.573, 114.582 23.997 L 111.500 30.500 111.500 91 L 111.500 151.500 114.582 158.003 C 118.546 166.368, 125.673 173.484, 133.980 177.371 C 139.224 179.825, 142.127 180.486, 149.143 180.821 L 157.820 181.236 150.747 195.601 C 143.880 209.546, 143.708 210.081, 144.844 213.873 C 145.487 216.021, 147.120 218.504, 148.472 219.390 C 153.743 222.844, 156.129 221.943, 195.848 201.500 L 233.735 182 296.118 181.967 C 330.428 181.949, 361.534 181.543, 365.242 181.065 C 379.487 179.228, 391.379 170.754, 397.326 158.201 L 400.500 151.500 400.500 91 L 400.500 30.500 397.418 23.997 C 393.470 15.667, 386.333 8.530, 378.003 4.582 L 371.500 1.500 257.500 1.308 C 167.347 1.157, 142.663 1.384, 139.500 2.394 M 140.264 23.558 C 137.868 24.994, 134.935 27.961, 133.514 30.386 L 131 34.676 131 91 L 131 147.324 133.527 151.636 C 135.008 154.163, 137.837 156.992, 140.364 158.473 C 144.438 160.861, 145.496 161.003, 159.588 161.056 C 177.469 161.124, 180.762 161.988, 183.353 167.294 L 185.207 171.088 181.150 179.544 C 178.918 184.195, 177.485 188, 177.966 188 C 178.446 188, 189.788 182.262, 203.169 175.250 L 227.500 162.500 297 162 L 366.500 161.500 371.223 158.723 C 374.139 157.010, 376.914 154.297, 378.473 151.636 L 381 147.324 381 91 L 381 34.676 378.473 30.364 C 376.992 27.837, 374.163 25.008, 371.636 23.527 L 367.324 21 255.912 21.009 L 144.500 21.019 140.264 23.558 M 175.077 44.589 C 171.084 47.949, 170.802 53.495, 174.411 57.694 L 176.823 60.500 197.060 60.810 C 211.149 61.025, 218.176 60.756, 220.189 59.922 C 226.616 57.260, 228.036 49.882, 223.077 44.923 L 220.154 42 199.154 42 L 178.153 42 175.077 44.589 M 178.295 82.094 C 174.169 83.304, 172 86.465, 172 91.268 C 172 96.321, 175.278 99.627, 181.124 100.472 C 183.531 100.819, 215.280 100.968, 251.677 100.802 C 317.130 100.503, 317.886 100.477, 320.677 98.398 C 326.251 94.247, 326.251 87.753, 320.677 83.602 C 317.879 81.518, 317.262 81.498, 249.677 81.327 C 209.481 81.224, 180.185 81.539, 178.295 82.094 M 178.295 122.094 C 174.169 123.304, 172 126.465, 172 131.268 C 172 136.321, 175.278 139.627, 181.124 140.472 C 183.531 140.819, 215.280 140.968, 251.677 140.802 C 317.130 140.503, 317.886 140.477, 320.677 138.398 C 326.251 134.247, 326.251 127.753, 320.677 123.602 C 317.879 121.518, 317.262 121.498, 249.677 121.327 C 209.481 121.224, 180.185 121.539, 178.295 122.094 M 33.500 152.350 C 20.387 156.692, 10.826 164.973, 5.113 176.935 C 1.610 184.269, 1.500 184.851, 1.500 196 C 1.500 206.499, 1.743 208.019, 4.295 213.468 C 5.832 216.751, 8.854 221.773, 11.010 224.630 L 14.931 229.823 11.344 233.662 C 9.371 235.773, 6.349 240.425, 4.628 244 L 1.500 250.500 1.500 326 L 1.500 401.500 4.620 408 C 11.074 421.447, 23.621 429.961, 38.230 430.807 C 44.987 431.198, 46.022 431.495, 45.474 432.882 C 35.585 457.922, 21 498.872, 21 501.595 C 21 506.817, 25.447 511, 31 511 C 37.963 511, 39.345 508.714, 50.504 478.750 C 55.983 464.038, 60.706 452, 61 452 C 61.294 452, 66.017 464.038, 71.496 478.750 C 82.655 508.714, 84.037 511, 91 511 C 96.553 511, 101 506.817, 101 501.595 C 101 498.862, 86.616 458.484, 76.476 432.750 C 75.831 431.115, 77.267 431, 98.393 431 L 121 431 121 456.962 C 121 481.001, 121.158 483.354, 123.136 488.712 C 126.092 496.726, 135.274 505.908, 143.288 508.864 C 151.037 511.724, 160.963 511.724, 168.712 508.864 C 176.761 505.894, 185.906 496.729, 188.892 488.639 C 191.039 482.821, 191.053 482.308, 190.777 416.639 L 190.500 350.500 187.418 343.997 C 183.470 335.667, 176.333 328.530, 168.003 324.582 L 161.500 321.500 129 320.968 C 93.862 320.393, 92.970 320.260, 87.223 314.716 C 81.789 309.474, 81 304.821, 81 278 C 81 251.456, 80.377 247.732, 74.459 238.939 L 70.949 233.724 73.225 232.182 C 77.915 229.004, 83.236 222.301, 86.809 215.071 C 90.420 207.766, 90.500 207.352, 90.500 196.052 C 90.500 184.843, 90.393 184.275, 86.887 176.935 C 82.113 166.939, 75.039 159.871, 65.065 155.131 C 58.153 151.846, 56.637 151.514, 47.500 151.281 C 41.209 151.120, 36.017 151.517, 33.500 152.350 M 453.500 152.350 C 440.387 156.692, 430.826 164.973, 425.113 176.935 C 421.607 184.275, 421.500 184.843, 421.500 196.052 C 421.500 207.352, 421.580 207.766, 425.191 215.071 C 428.764 222.301, 434.085 229.004, 438.775 232.182 L 441.051 233.724 437.541 238.939 C 431.623 247.732, 431 251.456, 431 278 C 431 304.821, 430.211 309.474, 424.777 314.716 C 419.030 320.260, 418.138 320.393, 383 320.968 L 350.500 321.500 343.997 324.582 C 335.667 328.530, 328.530 335.667, 324.582 343.997 L 321.500 350.500 321.223 416.639 C 320.947 482.308, 320.961 482.821, 323.108 488.639 C 326.094 496.729, 335.239 505.894, 343.288 508.864 C 351.058 511.732, 360.982 511.727, 368.664 508.853 C 376.718 505.839, 385.983 496.609, 388.878 488.712 C 390.838 483.368, 391 480.938, 391 456.962 L 391 431 413.607 431 C 434.733 431, 436.169 431.115, 435.524 432.750 C 425.384 458.484, 411 498.862, 411 501.595 C 411 506.817, 415.447 511, 421 511 C 427.963 511, 429.345 508.714, 440.504 478.750 C 445.983 464.038, 450.706 452, 451 452 C 451.294 452, 456.017 464.037, 461.496 478.750 C 472.655 508.714, 474.037 511, 481 511 C 486.553 511, 491 506.817, 491 501.595 C 491 498.872, 476.415 457.922, 466.526 432.882 C 465.978 431.495, 467.013 431.198, 473.770 430.807 C 488.504 429.954, 501.042 421.457, 507.418 408.003 L 510.500 401.500 510.500 326 L 510.500 250.500 507.372 244 C 505.651 240.425, 502.629 235.773, 500.656 233.662 L 497.069 229.823 500.990 224.630 C 503.146 221.773, 506.168 216.751, 507.705 213.468 C 510.257 208.019, 510.500 206.499, 510.500 196 C 510.500 184.851, 510.390 184.269, 506.887 176.935 C 502.113 166.939, 495.039 159.871, 485.065 155.131 C 478.153 151.846, 476.637 151.514, 467.500 151.281 C 461.209 151.120, 456.017 151.517, 453.500 152.350 M 34.158 173.571 C 24.871 178.264, 20.517 186.440, 21.168 197.961 C 21.659 206.659, 25.387 213.108, 32.448 217.474 C 36.910 220.232, 38.109 220.500, 46 220.500 C 53.891 220.500, 55.090 220.232, 59.552 217.474 C 62.586 215.598, 65.598 212.586, 67.474 209.552 C 70.232 205.090, 70.500 203.891, 70.500 196 C 70.500 188.109, 70.232 186.910, 67.474 182.448 C 62.895 175.042, 56.628 171.582, 47.078 171.186 C 40.467 170.911, 38.818 171.216, 34.158 173.571 M 454.158 173.571 C 444.871 178.264, 440.517 186.440, 441.168 197.961 C 441.659 206.659, 445.387 213.108, 452.448 217.474 C 456.910 220.232, 458.109 220.500, 466 220.500 C 473.891 220.500, 475.090 220.232, 479.552 217.474 C 482.586 215.598, 485.598 212.586, 487.474 209.552 C 490.232 205.090, 490.500 203.891, 490.500 196 C 490.500 188.109, 490.232 186.910, 487.474 182.448 C 482.895 175.042, 476.628 171.582, 467.078 171.186 C 460.467 170.911, 458.818 171.216, 454.158 173.571 M 31.168 243.091 C 28.688 244.350, 25.696 247.013, 24.168 249.321 L 21.500 253.352 21.227 312.176 L 20.954 371 75.227 371.006 C 109.850 371.009, 130.861 371.389, 133.259 372.055 C 140.708 374.124, 140.440 372.092, 141 430.689 L 141.500 482.969 145.267 486.734 C 148.901 490.368, 149.278 490.500, 156 490.500 C 162.722 490.500, 163.099 490.368, 166.733 486.734 L 170.500 482.968 170.772 419.345 C 171.042 356.075, 171.032 355.697, 168.901 351.295 C 167.603 348.614, 165.159 345.809, 162.705 344.184 L 158.653 341.500 126.076 340.897 C 99.068 340.396, 92.737 340.006, 89.033 338.614 C 73.658 332.836, 63.950 320.862, 61.927 305.179 C 61.453 301.506, 61.051 288.855, 61.033 277.066 C 61.003 257.305, 60.834 255.289, 58.879 251.250 C 55.779 244.846, 50.408 241.633, 42.111 241.221 C 36.835 240.959, 34.625 241.336, 31.168 243.091 M 140.005 242.744 C 133.732 244.957, 124.857 254.014, 122.676 260.428 C 118.708 272.096, 121.312 283.460, 129.926 292.074 C 138.018 300.166, 141.154 301, 163.499 301 L 181.641 301 201.320 318.529 L 221 336.058 221 420.606 L 221 505.154 223.923 508.077 L 226.846 511 251 511 L 275.154 511 278.077 508.077 L 281 505.154 281.044 421.327 L 281.087 337.500 305.534 319.250 L 329.981 301 348.312 301 C 370.867 301, 373.968 300.180, 382.074 292.074 C 390.630 283.519, 393.292 272.084, 389.394 260.643 C 387.029 253.701, 379.199 245.592, 372.410 243.052 C 366.994 241.026, 365.517 241.001, 255.712 241.079 C 156.864 241.149, 144 241.334, 140.005 242.744 M 461.168 243.091 C 458.690 244.349, 455.695 247.014, 454.168 249.319 L 451.500 253.348 450.877 280.924 C 450.377 303.003, 449.922 309.390, 448.594 312.967 C 442.907 328.284, 430.868 338.049, 415.179 340.073 C 411.506 340.547, 396.605 340.949, 382.066 340.967 C 351.836 341.005, 349.721 341.467, 344.362 349.200 L 341.500 353.329 341.500 418.148 L 341.500 482.967 345.267 486.733 C 348.901 490.368, 349.277 490.500, 356 490.500 C 362.722 490.500, 363.099 490.368, 366.733 486.734 L 370.500 482.969 371 430.689 C 371.560 372.092, 371.292 374.124, 378.741 372.055 C 381.139 371.389, 402.143 371.009, 436.750 371.006 L 491 371 491 313.316 C 491 256.577, 490.965 255.560, 488.879 251.250 C 485.779 244.846, 480.408 241.633, 472.111 241.221 C 466.835 240.959, 464.625 241.336, 461.168 243.091 M 143.687 263.805 C 141.605 265.978, 141 267.598, 141 271 C 141 274.402, 141.605 276.022, 143.687 278.195 L 146.374 281 256 281 L 365.626 281 368.313 278.195 C 370.395 276.022, 371 274.402, 371 271 C 371 267.598, 370.395 265.978, 368.313 263.805 L 365.626 261 256 261 L 146.374 261 143.687 263.805 M 212 301.331 C 212 301.513, 218.084 307.022, 225.520 313.573 C 236.019 322.823, 239.257 326.267, 240.014 328.992 C 240.609 331.133, 240.991 363.375, 240.994 411.750 L 241 491 250.972 491 L 260.943 491 261.222 410.080 L 261.500 329.160 263.990 326.510 C 265.359 325.053, 273.122 318.892, 281.240 312.821 C 289.358 306.749, 296 301.605, 296 301.390 C 296 301.176, 277.100 301, 254 301 C 230.900 301, 212 301.149, 212 301.331 M 21.283 395.072 C 22.054 400.818, 26.058 406.366, 31.250 408.879 C 35.505 410.939, 36.863 411, 78.316 411 L 121 411 121 401 L 121 391 70.868 391 L 20.737 391 21.283 395.072 M 391 401 L 391 411 433.684 411 C 475.137 411, 476.495 410.939, 480.750 408.879 C 485.942 406.366, 489.946 400.818, 490.717 395.072 L 491.263 391 441.132 391 L 391 391 391 401" stroke="none" fill="#000000" fill-rule="evenodd"/><path d="M 188.750 41.746 C 194.387 41.924, 203.613 41.924, 209.250 41.746 C 214.887 41.568, 210.275 41.422, 199 41.422 C 187.725 41.422, 183.113 41.568, 188.750 41.746 M 146.110 262.396 C 139.408 266.110, 139.628 276.687, 146.472 279.805 C 148.453 280.708, 175.267 281, 256.097 281 C 346.751 281, 363.520 280.782, 365.855 279.575 C 372.510 276.133, 372.510 265.867, 365.855 262.425 C 361.895 260.377, 149.802 260.349, 146.110 262.396 M 213 301.313 C 213 301.485, 214.463 302.948, 216.250 304.563 L 219.500 307.500 216.563 304.250 C 213.825 301.221, 213 300.540, 213 301.313 M 222 309.313 C 222 309.485, 223.463 310.948, 225.250 312.563 L 228.500 315.500 225.563 312.250 C 222.825 309.221, 222 308.540, 222 309.313 M 231 317.313 C 231 317.485, 232.463 318.948, 234.250 320.563 L 237.500 323.500 234.563 320.250 C 231.825 317.221, 231 316.540, 231 317.313" stroke="none" fill="#6c7fd8" fill-rule="evenodd"/><path d="M 40.718 172.070 C 35.092 173.427, 31.751 175.426, 27.796 179.805 C 18.946 189.600, 19.658 204.821, 29.387 213.789 C 39.033 222.680, 52.967 222.680, 62.613 213.789 C 72.380 204.786, 73.055 189.619, 64.129 179.709 C 58.318 173.257, 48.747 170.134, 40.718 172.070 M 460.718 172.070 C 455.092 173.427, 451.751 175.426, 447.796 179.805 C 438.946 189.600, 439.658 204.821, 449.387 213.789 C 459.033 222.680, 472.967 222.680, 482.613 213.789 C 492.380 204.786, 493.055 189.619, 484.129 179.709 C 478.318 173.257, 468.747 170.134, 460.718 172.070" stroke="none" fill="#ffe1ba" fill-rule="evenodd"/><path d="M 464.791 241.930 C 460.570 243.293, 456.358 246.686, 453.821 250.768 C 451.573 254.382, 451.484 255.384, 451 282.555 L 450.500 310.610 446.765 318.164 C 442.267 327.262, 436.474 332.932, 427.180 337.335 L 420.500 340.500 387.424 341 L 354.348 341.500 350.297 344.183 C 348.069 345.658, 345.178 348.583, 343.873 350.683 L 341.500 354.500 341.221 416.812 C 340.943 478.947, 340.948 479.135, 343.089 482.944 C 345.569 487.358, 351.373 491, 355.926 491 C 360.791 491, 366.241 487.694, 368.758 483.217 C 370.998 479.231, 371 479.181, 371 429.064 C 371 374.647, 370.996 374.690, 376.472 372.195 C 378.405 371.314, 393.803 371, 435.078 371 L 491.062 371 490.781 312.750 L 490.500 254.500 488.127 250.683 C 484.737 245.231, 479.323 241.963, 472.859 241.467 C 469.911 241.240, 466.281 241.449, 464.791 241.930" stroke="none" fill="#ff641a" fill-rule="evenodd"/><path d="M 263.323 161.750 C 281.925 161.902, 312.075 161.902, 330.323 161.749 C 348.570 161.597, 333.350 161.472, 296.500 161.472 C 259.650 161.472, 244.720 161.597, 263.323 161.750 M 450.232 304 C 450.232 305.925, 450.438 306.712, 450.689 305.750 C 450.941 304.788, 450.941 303.212, 450.689 302.250 C 450.438 301.288, 450.232 302.075, 450.232 304 M 222 310.500 C 223.866 312.425, 225.617 314, 225.892 314 C 226.167 314, 224.866 312.425, 223 310.500 C 221.134 308.575, 219.383 307, 219.108 307 C 218.833 307, 220.134 308.575, 222 310.500 M 231 318.500 C 232.866 320.425, 234.617 322, 234.892 322 C 235.167 322, 233.866 320.425, 232 318.500 C 230.134 316.575, 228.383 315, 228.108 315 C 227.833 315, 229.134 316.575, 231 318.500 M 438.453 329.250 L 434.500 333.500 438.750 329.547 C 442.702 325.871, 443.460 325, 442.703 325 C 442.540 325, 440.627 326.913, 438.453 329.250 M 70 326.313 C 70 326.485, 71.463 327.948, 73.250 329.563 L 76.500 332.500 73.563 329.250 C 70.825 326.221, 70 325.540, 70 326.313 M 412.250 340.689 C 413.212 340.941, 414.788 340.941, 415.750 340.689 C 416.712 340.438, 415.925 340.232, 414 340.232 C 412.075 340.232, 411.288 340.438, 412.250 340.689" stroke="none" fill="#040404" fill-rule="evenodd"/><path d="" stroke="none" fill="#cdc0aa" fill-rule="evenodd"/></svg>